# AST/ASF file generated using VICON BodyLanguage
# -----------------------------------------------
:version 1.10
:name VICON
:units
  mass 1.0
  length 0.45
  angle deg
:documentation
   .ast/.asf automatically generated from VICON data using
   VICON BodyBuilder and BodyLanguage model FoxedUp or BRILLIANT.MOD
:root
   order TX TY TZ RX RY RZ
   axis XYZ
   position 0 0 0  
   orientation 0 -0 0 
:bonedata
  begin
     id 1 
     name lhipjoint
     direction 0.500677 -0.737119 0.453848 
     length 2.34727 
     axis 0 -0 0  XYZ
  end
  begin
     id 2 
     name lfemur
     direction 0.34202 -0.939693 0  
     length 7.53653  
     axis 0 -0 20  XYZ
    dof rx ry rz
    limits (-160.0 20.0)
           (-70.0 70.0)
           (-60.0 70.0)
  end
  begin
     id 3 
     name ltibia
     direction 0.34202 -0.939693 0   
     length 6.85572   
     axis 0 -0 20   XYZ
    dof rx
    limits (-10.0 170.0)
  end
  begin
     id 4 
     name lfoot
     direction 0.155313 -0.426718 0.890949   
     length 2.18324   
     axis -90 -1.13533e-015 20   XYZ
    dof rx rz
    limits (-45.0 90.0)
           (-70.0 20.0)
  end
  begin
     id 5 
     name ltoes
     direction 1.53474e-011 -4.21647e-011 1   
     length 1.06748   
     axis -90 -1.13533e-015 20   XYZ
    dof rx
    limits (-90.0 20.0)
  end
  begin
     id 6 
     name rhipjoint
     direction -0.632471 -0.659587 0.406111   
     length 2.62319  
     axis 0 -0 0  XYZ 
  end
  begin
     id 7 
     name rfemur
     direction -0.34202 -0.939693 0   
     length 7.21735   
     axis 0 -0 -20   XYZ
    dof rx ry rz
    limits (-160.0 20.0)
           (-70.0 70.0)
           (-70.0 60.0)
  end
  begin
     id 8 
     name rtibia
     direction -0.34202 -0.939693 0   
     length 7.02558   
     axis 0 -0 -20   XYZ
    dof rx
    limits (-10.0 170.0)
 end
 begin
     id 9 
     name rfoot
     direction -0.16057 -0.441164 0.882945   
     length 2.10014  
     axis -90 1.13533e-015 -20   XYZ
    dof rx rz
    limits (-45.0 90.0)
           (-20.0 70.0)
  end
  begin
     id 10 
     name rtoes
     direction -1.53553e-011 -4.2192e-011 1   
     length 1.02554   
     axis -90 1.13533e-015 -20   XYZ
    dof rx
    limits (-90.0 20.0)
  end
  begin
     id 11 
     name lowerback
     direction 0.0401429 0.998861 -0.0258085   
     length 1.80848   
     axis 0 -0 0   XYZ
    dof rx ry rz
    limits (-20.0 45.0)
           (-30.0 30.0)
           (-30.0 30.0)
  end
  begin
     id 12 
     name upperback
     direction -0.0130978 0.999914 -0.000352645   
     length 1.8116   
     axis 0 -0 0   XYZ
    dof rx ry rz
    limits (-20.0 45.0)
           (-30.0 30.0)
           (-30.0 30.0)
  end
  begin
     id 13 
     name thorax
     direction -0.0300198 0.999453 0.0138573   
     length 1.81778   
     axis 0 -0 0   XYZ
    dof rx ry rz
    limits (-20.0 45.0)
           (-30.0 30.0)
           (-30.0 30.0)
  end
  begin
     id 14 
     name lowerneck
     direction -0.0401726 0.999191 -0.00173647   
     length 2.10594   
     axis 0 -0 0   XYZ
    dof rx ry rz
    limits (-20.0 45.0)
           (-30.0 30.0)
           (-30.0 30.0)
  end
  begin
     id 15 
     name upperneck
     direction 0.0119835 0.998501 0.0534085   
     length 2.07325   
     axis 0 -0 0   XYZ
    dof rx ry rz
    limits (-20.0 45.0)
           (-30.0 30.0)
           (-30.0 30.0)
  end
  begin
     id 16
     name head
     direction 0.00628309 0.999826 0.0175921  
     length 2.15096  
     axis 0 -0 0   XYZ
    dof rx ry rz
    limits (-20.0 45.0)
           (-30.0 30.0)
           (-30.0 30.0)
  end
  begin
     id 17 
     name lclavicle
     direction 0.895501 0.429681 -0.115981  
     length 4.18092  
     axis 0 -0 0   XYZ
    dof ry rz
    limits (-20.0 10.0)
           (0.0 20.0)
  end
  begin
     id 18 
     name lhumerus
     direction 1 -4.48961e-011 -3.38433e-028   
     length 5.77237   
     axis 180 -30 -90   XYZ
    dof rx ry rz
    limits (-60.0 90.0)
           (-90.0 90.0)
           (-90.0 90.0)
  end
  begin
     id 19
     name lradius
     direction 1 -4.4901e-011 1.11983e-026   
     length 2.91878   
     axis 180 -30 -90   XYZ
    dof rx
    limits (-10.0 170.0)
  end
  begin
     id 20
     name lwrist
     direction 1 -4.48934e-011 1.88176e-026   
     length 1.45939   
     axis -1.23311e-014 90 90   XYZ
    dof ry
    limits (-180.0 0.0)
 end
  begin
     id 21 
     name lhand
     direction 1 -4.4895e-011 3.76352e-026   
     length 1.06566   
     axis -2.40147e-014 90 90   XYZ
    dof rx rz
    limits (-90.0 90.0)
           (-45.0 45.0)
  end
  begin
     id 22 
     name lfingers
     direction 1 -4.49005e-011 7.52705e-026   
     length 0.859162   
     axis -4.80295e-014 90 90   XYZ
    dof rx
    limits (0.0 90.0)
  end
  begin
     id 23
     name lthumb
     direction 0.707107 -6.34885e-011 0.707107   
     length 1.23359   
     axis -90 45 -9.86935e-015   XYZ
    dof rx rz
    limits (-45.0 45.0)
           (-45.0 45.0)
  end
  begin
     id 24 
     name rclavicle
     direction -0.91006 0.40451 -0.0903492   
     length 4.23293  
     axis 0 -0 0   XYZ 
    dof ry rz
    limits (-10.0 20.0)
           (-20.0 0.0)
  end
  begin
     id 25 
     name rhumerus
     direction -1 -4.4897e-011 1.7415e-027  
     length 5.49854   
     axis 180 30 90   XYZ
    dof rx ry rz
    limits (-90.0 60.0)
           (-90.0 90.0)
           (-90.0 90.0)
  end
  begin
     id 26 
     name rradius
     direction -1 -4.48963e-011 1.21259e-026   
     length 3.1186   
     axis 180 30 90   XYZ
    dof rx
    limits (-10.0 170.0)
  end
  begin
     id 27 
     name rwrist
     direction -1 -4.48967e-011 1.88176e-026   
     length 1.5593   
     axis -1.23311e-014 -90 -90   XYZ
    dof ry
    limits (-180.0 0.0)
  end
  begin
     id 28
     name rhand
     direction -1 -4.4895e-011 3.76352e-026   
     length 0.71207   
     axis -2.40147e-014 -90 -90   XYZ
    dof rx rz
    limits (-90.0 90.0)
           (-45.0 45.0)
  end
  begin
     id 29
     name rfingers
     direction -1 -4.49005e-011 7.52705e-026   
     length 0.574089   
     axis -4.80295e-014 -90 -90   XYZ
    dof rx
    limits (0.0 90.0)
  end
  begin
     id 30
     name rthumb
     direction -0.707107 -6.34982e-011 0.707107   
     length 0.824281   
     axis -90 -45 9.86935e-015   XYZ
    dof rx rz
    limits (-45.0 45.0)
           (-45.0 45.0)
  end
:hierarchy
  begin
    root lhipjoint rhipjoint lowerback
    lhipjoint lfemur
    lfemur ltibia
    ltibia lfoot
    lfoot ltoes
    rhipjoint rfemur
    rfemur rtibia
    rtibia rfoot
    rfoot rtoes
    lowerback upperback
    upperback thorax
    thorax lowerneck lclavicle rclavicle
    lowerneck upperneck
    upperneck head
    lclavicle lhumerus
    lhumerus lradius
    lradius lwrist
    lwrist lhand lthumb
    lhand lfingers
    rclavicle rhumerus
    rhumerus rradius
    rradius rwrist
    rwrist rhand rthumb
    rhand rfingers
  end

#!OML:ASF C:\ViconDB\ViconDB\414\Spring2016\042216\male.ASF
:FULLY-SPECIFIED
:DEGREES
537
root 43.6376 17.8677 11.5642 -18.0917 82.9009 -18.3962
lowerback -0.157666 -1.6209 4.72951
upperback -1.09256 -2.14572 -1.01415
thorax -1.24922 -1.12554 -3.67163
lowerneck -3.89371 2.40397 -3.77393
upperneck 6.74576 3.29542 2.85923
head 2.71961 1.64946 1.69564
rclavicle -2.67738e-014 -2.38542e-015
rhumerus -33.7964 -13.7218 -88.3432
rradius 25.5592
rwrist 34.944
rhand 12.3698 -18.6776
rfingers 7.12502
rthumb 37.3704 -44.6454
lclavicle -2.67738e-014 -2.38542e-015
lhumerus -29.8898 7.10333 87.2185
lradius 43.6997
lwrist -4.78348
lhand -7.13094 11.3969
lfingers 7.12502
lthumb 18.7449 40.5137
rfemur -14.3499 3.56281 21.7832
rtibia 27.8558
rfoot -14.9416 -2.3709
rtoes -15.9232
lfemur -11.2894 -0.362259 -19.8409
ltibia 25.4433
lfoot -16.9776 11.3231
ltoes -17.8574
538
root 43.69 17.8655 11.5833 -17.4154 83.0633 -17.7609
lowerback -0.288189 -1.63619 4.59675
upperback -1.09808 -2.17334 -1.1006
thorax -1.18261 -1.13697 -3.68985
lowerneck -3.9802 2.20008 -3.93949
upperneck 7.02178 3.01716 3.13539
head 2.8352 1.51595 1.8153
rclavicle 4.31363e-014 -4.77083e-015
rhumerus -33.8027 -13.6473 -88.4983
rradius 25.6389
rwrist 34.901
rhand 12.1949 -18.7616
rfingers 7.12502
rthumb 37.205 -44.7728
lclavicle 4.31363e-014 -4.77083e-015
lhumerus -29.898 6.66428 87.4028
lradius 44.0313
lwrist -4.51937
lhand -7.07279 11.3084
lfingers 7.12502
lthumb 18.8008 40.4198
rfemur -14.4996 4.41471 21.5673
rtibia 27.2699
rfoot -13.4515 -2.44954
rtoes -13.1106
lfemur -11.1321 -0.518016 -19.9367
ltibia 25.4898
lfoot -17.2781 11.4679
ltoes -17.7948
539
root 43.7416 17.8689 11.6073 -17.9058 83.1762 -18.2507
lowerback -0.399024 -1.65195 4.51871
upperback -1.08027 -2.19982 -1.093
thorax -1.10123 -1.14705 -3.64156
lowerneck -3.99974 2.07305 -3.97859
upperneck 7.22037 2.84401 3.22398
head 2.91215 1.43178 1.85075
rclavicle 1.76297e-014 -9.54166e-015
rhumerus -33.7538 -13.5934 -88.5345
rradius 25.6772
rwrist 35.2146
rhand 12.2026 -18.6292
rfingers 7.12502
rthumb 37.2124 -44.6384
lclavicle 1.76297e-014 -9.54166e-015
lhumerus -29.9739 6.05311 87.7131
lradius 44.4317
lwrist -3.90929
lhand -7.05635 11.6497
lfingers 7.12502
lthumb 18.8166 40.7596
rfemur -14.5104 5.2086 21.5309
rtibia 26.7953
rfoot -12.0655 -2.51658
rtoes -10.9971
lfemur -10.9588 -0.690796 -19.8515
ltibia 25.5751
lfoot -17.3789 11.5922
ltoes -18.2306
540
root 43.7973 17.8668 11.6317 -18.6855 83.2414 -18.9732
lowerback -0.461131 -1.62104 4.58605
upperback -1.10539 -2.16095 -1.13088
thorax -1.09265 -1.12866 -3.72059
lowerneck -4.0184 1.859 -4.19984
upperneck 7.54357 2.55291 3.49735
head 3.03448 1.29065 1.97912
rclavicle 2.68359e-014 -2.38542e-015
rhumerus -33.7731 -13.1787 -88.7248
rradius 25.6845
rwrist 35.1005
rhand 12.5627 -18.5548
rfingers 7.12502
rthumb 37.5527 -44.4743
lclavicle 2.68359e-014 -2.38542e-015
lhumerus -30.1109 5.81751 87.8513
lradius 44.5521
lwrist -3.83237
lhand -7.06993 11.3804
lfingers 7.12502
lthumb 18.8036 40.4916
rfemur -14.387 5.70449 21.5804
rtibia 26.4798
rfoot -11.0426 -2.41373
rtoes -9.49949
lfemur -10.6903 -0.684845 -19.7219
ltibia 25.6505
lfoot -17.4872 11.5787
ltoes -18.6298
541
root 43.8506 17.858 11.6567 -19.8442 83.3533 -20.0522
lowerback -0.578899 -1.63005 4.57927
upperback -1.05946 -2.17914 -1.1052
thorax -0.979757 -1.13392 -3.69461
lowerneck -4.13948 1.72418 -4.28266
upperneck 7.89523 2.371 3.63617
head 3.18494 1.20342 2.04452
rclavicle -1.25856e-014 -2.38542e-015
rhumerus -33.6934 -13.0063 -88.8196
rradius 25.7095
rwrist 35.2281
rhand 12.6956 -18.5614
rfingers 7.12502
rthumb 37.6783 -44.4474
lclavicle -1.25856e-014 -2.38542e-015
lhumerus -30.1603 5.57649 88.056
lradius 44.583
lwrist -3.8683
lhand -6.92116 11.4175
lfingers 7.12502
lthumb 18.9466 40.5148
rfemur -14.1372 5.86145 21.6822
rtibia 26.2687
rfoot -10.5835 -2.12232
rtoes -10.0245
lfemur -10.4358 -0.68219 -19.5678
ltibia 25.7605
lfoot -17.8011 11.4988
ltoes -18.7741
542
root 43.9039 17.8508 11.6856 -19.1257 83.4999 -19.2494
lowerback -0.728091 -1.62098 4.31873
upperback -1.02237 -2.17408 -1.14415
thorax -0.848675 -1.12552 -3.59378
lowerneck -4.22657 1.60293 -4.34398
upperneck 8.1691 2.20449 3.77256
head 3.30285 1.12457 2.10338
rclavicle -2.62644e-014 -2.78299e-015
rhumerus -33.5761 -12.5154 -89.0805
rradius 25.6941
rwrist 34.906
rhand 12.7008 -18.5253
rfingers 7.12502
rthumb 37.6833 -44.41
lclavicle -2.62644e-014 -2.78299e-015
lhumerus -30.2593 5.44289 88.1693
lradius 44.6232
lwrist -3.99446
lhand -6.71411 11.4182
lfingers 7.12502
lthumb 19.1458 40.4958
rfemur -13.7624 5.67843 21.5862
rtibia 26.1215
rfoot -10.5232 -1.80613
rtoes -10.5485
lfemur -10.2168 -0.545845 -19.6431
ltibia 25.8931
lfoot -18.1816 11.4114
ltoes -18.695
543
root 43.9554 17.845 11.7042 -18.6797 83.6421 -18.7087
lowerback -0.829064 -1.60523 4.24764
upperback -0.99474 -2.15777 -1.19094
thorax -0.761162 -1.11448 -3.60596
lowerneck -4.29623 1.46097 -4.438
upperneck 8.4277 2.01868 3.82408
head 3.41427 1.03183 2.13808
rclavicle -1.03865e-014 1.59028e-015
rhumerus -33.4847 -11.9392 -89.3165
rradius 25.7083
rwrist 34.7171
rhand 12.873 -18.4313
rfingers 7.12502
rthumb 37.8459 -44.2723
lclavicle -1.03865e-014 1.59028e-015
lhumerus -30.3803 5.18821 88.3979
lradius 44.5666
lwrist -3.93496
lhand -6.79301 11.4129
lfingers 7.12502
lthumb 19.0699 40.4981
rfemur -13.2945 5.76478 21.4547
rtibia 25.9716
rfoot -10.8505 -1.55469
rtoes -10.424
lfemur -9.97986 -0.536346 -19.7174
ltibia 26.0457
lfoot -18.5228 11.4108
ltoes -18.5831
544
root 44.005 17.8405 11.7254 -18.6145 83.7921 -18.5665
lowerback -0.886976 -1.60599 4.15665
upperback -1.0149 -2.16021 -1.18698
thorax -0.745958 -1.11489 -3.55212
lowerneck -4.26504 1.34378 -4.46188
upperneck 8.62194 1.86563 3.78186
head 3.48329 0.953454 2.12587
rclavicle 1.54804e-014 1.47101e-014
rhumerus -33.4169 -11.5545 -89.423
rradius 25.698
rwrist 34.2123
rhand 12.9779 -18.4208
rfingers 7.12502
rthumb 37.945 -44.235
lclavicle 1.54804e-014 1.47101e-014
lhumerus -30.545 5.21279 88.5485
lradius 44.3104
lwrist -4.11826
lhand -6.73773 11.3113
lfingers 7.12502
lthumb 19.1231 40.3912
rfemur -12.8241 5.83432 21.3967
rtibia 25.744
rfoot -11.1817 -1.37019
rtoes -10.0667
lfemur -9.76641 -0.425188 -19.7341
ltibia 26.1856
lfoot -18.9279 11.2975
ltoes -18.2687
545
root 44.0529 17.834 11.7518 -19.7473 83.9208 -19.6618
lowerback -1.0117 -1.56942 4.20441
upperback -1.01895 -2.11639 -1.14218
thorax -0.67621 -1.09148 -3.53677
lowerneck -4.38203 1.18504 -4.72786
upperneck 8.89806 1.6651 3.9176
head 3.61198 0.851215 2.22101
rclavicle -1.83876e-015 2.78299e-015
rhumerus -33.351 -11.4506 -89.3854
rradius 25.7313
rwrist 34.19
rhand 12.8488 -18.5345
rfingers 7.12502
rthumb 37.823 -44.3816
lclavicle -1.83876e-015 2.78299e-015
lhumerus -30.7094 5.33255 88.7221
lradius 44.025
lwrist -4.6424
lhand -6.5074 11.3138
lfingers 7.12502
lthumb 19.3445 40.3717
rfemur -12.3467 5.97842 21.5292
rtibia 25.3859
rfoot -11.4368 -1.56542
rtoes -10.2861
lfemur -9.61898 -0.182689 -19.6015
ltibia 26.3523
lfoot -19.3377 11.1446
ltoes -18.4452
546
root 44.1028 17.8261 11.773 -20.4209 84.0188 -20.2449
lowerback -1.11247 -1.59638 4.20977
upperback -0.985964 -2.15715 -1.14134
thorax -0.589736 -1.10934 -3.54261
lowerneck -4.43511 1.12636 -4.67565
upperneck 9.04978 1.58607 3.89389
head 3.67965 0.813118 2.20444
rclavicle 2.13694e-015 5.1684e-015
rhumerus -33.2235 -11.1119 -89.6031
rradius 25.7881
rwrist 33.8773
rhand 13.0285 -18.6387
rfingers 7.12502
rthumb 37.9927 -44.4399
lclavicle 2.13694e-015 5.1684e-015
lhumerus -30.8869 5.46315 88.8005
lradius 43.7884
lwrist -4.47701
lhand -6.78213 11.5868
lfingers 7.12502
lthumb 19.0803 40.6709
rfemur -11.7868 6.23108 21.5895
rtibia 24.9808
rfoot -11.6882 -1.8558
rtoes -10.1394
lfemur -9.44513 -0.0488994 -19.5259
ltibia 26.4873
lfoot -19.5872 11.0457
ltoes -18.4728
547
root 44.1541 17.8181 11.7973 -20.9817 84.0687 -20.6742
lowerback -1.14236 -1.56019 4.22166
upperback -1.00008 -2.10987 -1.15633
thorax -0.584148 -1.08588 -3.56551
lowerneck -4.39482 0.988357 -4.81829
upperneck 9.18231 1.39261 4.09311
head 3.72859 0.720785 2.29293
rclavicle -2.21396e-014 -9.93923e-015
rhumerus -33.1858 -10.8554 -89.7189
rradius 25.7658
rwrist 33.7241
rhand 13.1756 -18.4634
rfingers 7.12502
rthumb 38.1317 -44.2266
lclavicle -2.21396e-014 -9.93923e-015
lhumerus -31.1665 5.76432 88.7856
lradius 43.4225
lwrist -4.9832
lhand -6.68366 11.4015
lfingers 7.12502
lthumb 19.175 40.4762
rfemur -11.175 6.29475 21.691
rtibia 24.5283
rfoot -11.938 -1.98
rtoes -9.60453
lfemur -9.19011 -0.0312539 -19.4449
ltibia 26.6235
lfoot -19.8257 11.0897
ltoes -18.6213
548
root 44.2009 17.8122 11.8123 -20.29 84.223 -19.9024
lowerback -1.22263 -1.54454 4.18611
upperback -0.992619 -2.09212 -1.19124
thorax -0.529826 -1.07548 -3.58419
lowerneck -4.36311 0.931155 -4.81434
upperneck 9.18435 1.321 4.01876
head 3.72681 0.68215 2.26323
rclavicle -3.43897e-014 -2.38542e-014
rhumerus -33.1249 -10.5937 -89.793
rradius 25.8283
rwrist 33.6554
rhand 12.828 -18.4822
rfingers 7.12502
rthumb 37.8034 -44.3347
lclavicle -3.43897e-014 -2.38542e-014
lhumerus -31.4298 5.90235 88.87
lradius 43.0257
lwrist -5.43092
lhand -6.60452 11.4054
lfingers 7.12502
lthumb 19.2511 40.4726
rfemur -10.6022 5.94135 21.6516
rtibia 24.0847
rfoot -12.2398 -1.9129
rtoes -9.99135
lfemur -8.93259 0.00310548 -19.5423
ltibia 26.7259
lfoot -20.084 11.0756
ltoes -18.8502
549
root 44.24 17.8112 11.8372 -21.2308 84.4557 -20.8981
lowerback -1.32315 -1.56782 4.20706
upperback -1.06501 -2.12573 -1.19838
thorax -0.552196 -1.09399 -3.60517
lowerneck -4.30038 0.833509 -4.91683
upperneck 9.22039 1.18426 4.14409
head 3.73497 0.615968 2.31907
rclavicle 8.4732e-015 -3.97569e-016
rhumerus -33.0198 -10.1802 -89.9685
rradius 25.7993
rwrist 33.3927
rhand 12.8784 -18.4364
rfingers 7.12502
rthumb 37.851 -44.276
lclavicle 8.4732e-015 -3.97569e-016
lhumerus -31.699 6.21867 88.8299
lradius 42.522
lwrist -6.04135
lhand -6.5453 11.2951
lfingers 7.12502
lthumb 19.3081 40.3565
rfemur -10.2197 5.63255 21.7661
rtibia 23.6969
rfoot -12.5406 -2.02611
rtoes -9.87731
lfemur -8.90667 0.047257 -19.4562
ltibia 26.7777
lfoot -20.3602 10.8946
ltoes -18.877
550
root 44.2766 17.8105 11.861 -22.8588 84.6936 -22.6236
lowerback -1.40739 -1.59189 4.28253
upperback -1.15824 -2.15977 -1.21057
thorax -0.607572 -1.11424 -3.66118
lowerneck -4.13646 0.82649 -4.57554
upperneck 9.13266 1.16288 3.92446
head 3.67177 0.607538 2.17559
rclavicle -1.01877e-015 6.36111e-015
rhumerus -33.0028 -10.1598 -90.0267
rradius 25.824
rwrist 33.7529
rhand 12.9416 -18.0673
rfingers 7.12502
rthumb 37.9107 -43.8908
lclavicle -1.01877e-015 6.36111e-015
lhumerus -32.0013 6.47967 88.7966
lradius 41.9769
lwrist -6.39867
lhand -6.62781 11.0998
lfingers 7.12502
lthumb 19.2287 40.1692
rfemur -9.95856 5.15621 21.9121
rtibia 23.3766
rfoot -12.739 -1.90498
rtoes -9.82856
lfemur -8.88113 0.0413544 -19.3031
ltibia 26.7812
lfoot -20.5812 10.7058
ltoes -19.1018
